<?xml version="1.0" standalone="no"?>
<!DOCTYPE svg PUBLIC "-//W3C//DTD SVG 20010904//EN"
 "http://www.w3.org/TR/2001/REC-SVG-20010904/DTD/svg10.dtd">
<svg version="1.0" xmlns="http://www.w3.org/2000/svg"
 width="1280.000000pt" height="1280.000000pt" viewBox="0 0 1280.000000 1280.000000"
 preserveAspectRatio="xMidYMid meet">
<metadata>
Created by potrace 1.16, written by Peter Selinger 2001-2019
</metadata>
<g transform="translate(0.000000,1280.000000) scale(0.100000,-0.100000)"
fill="#DCDCDC" stroke="none">
<path d="M6255 12783 c-28 -10 -70 -30 -95 -45 -27 -16 -1280 -1262 -3071
-3055 -2893 -2895 -3027 -3031 -3055 -3093 -27 -61 -29 -74 -29 -190 0 -116 2
-129 29 -190 28 -62 162 -198 3060 -3098 2943 -2944 3033 -3034 3105 -3070 75
-37 76 -37 201 -37 125 0 126 0 201 37 121 60 211 169 243 293 14 53 16 327
16 2505 l0 2445 2603 -2601 c1677 -1677 2618 -2611 2647 -2627 78 -44 152 -60
259 -55 85 3 105 8 172 39 99 48 170 118 218 218 l36 76 0 6065 0 6065 -36 76
c-48 100 -119 170 -218 218 -67 31 -87 36 -172 39 -107 5 -181 -11 -259 -55
-29 -16 -970 -950 -2647 -2627 l-2603 -2601 0 2451 c0 2213 -2 2456 -16 2505
-37 126 -132 236 -252 292 -60 28 -79 31 -177 34 -86 3 -121 0 -160 -14z"/>
</g>
</svg>
